# xmcd
#
# Track frame offsets:
#	150
#	14696
#	35870
#	58684
#	83106
#	96382
#	112552
#	137413
#	154580
#	177866
#	196395
#
# Disc length: 2904 seconds
#
# Revision: 0
# Processed by: cddbd v1.5.2PL0 Copyright (c) Steve Scherf et al.
# Submitted via: audiograbber 1.83.01
#
DISCID=8a0b560b
DTITLE=Jack Bruse - Robin Trower - Seven Moons
DYEAR=2008
DGENRE=Blues
TTITLE0=Seven Moons
TTITLE1=Lives Of Clay
TTITLE2=Distant Places Of The Heart
TTITLE3=She's Not The One
TTITLE4=So Far To Yesterday
TTITLE5=Just Another Day
TTITLE6=Perfect Place
TTITLE7=The Last Door
TTITLE8=Bad Case Of Celebrity
TTITLE9=Come To Me
TTITLE10=I'm Home
EXTD=
EXTT0=
EXTT1=
EXTT2=
EXTT3=
EXTT4=
EXTT5=
EXTT6=
EXTT7=
EXTT8=
EXTT9=
EXTT10=
PLAYORDER=
